<mxfile host="app.diagrams.net" modified="2023-03-12T04:31:55.176Z" agent="5.0 (Windows NT 10.0; Win64; x64) AppleWebKit/537.36 (KHTML, like Gecko) Chrome/110.0.0.0 Safari/537.36" etag="PBr3tyqKhgaJpnT82uTe" version="21.0.6" type="github">
  <diagram name="Página-1" id="HUJWNCv1F9hIlg5pooKZ">
    <mxGraphModel dx="1100" dy="484" grid="1" gridSize="10" guides="1" tooltips="1" connect="1" arrows="1" fold="1" page="1" pageScale="1" pageWidth="827" pageHeight="1169" math="0" shadow="0">
      <root>
        <mxCell id="0" />
        <mxCell id="1" parent="0" />
        <mxCell id="7sjaSlBi-hbUuqMdy172-23" style="edgeStyle=orthogonalEdgeStyle;rounded=0;orthogonalLoop=1;jettySize=auto;html=1;" edge="1" parent="1" source="7sjaSlBi-hbUuqMdy172-1">
          <mxGeometry relative="1" as="geometry">
            <mxPoint x="230" y="110" as="targetPoint" />
          </mxGeometry>
        </mxCell>
        <mxCell id="7sjaSlBi-hbUuqMdy172-1" value="Inicio" style="html=1;dashed=0;whiteSpace=wrap;shape=mxgraph.dfd.start" vertex="1" parent="1">
          <mxGeometry x="190" y="50" width="80" height="30" as="geometry" />
        </mxCell>
        <mxCell id="7sjaSlBi-hbUuqMdy172-25" value="" style="edgeStyle=orthogonalEdgeStyle;rounded=0;orthogonalLoop=1;jettySize=auto;html=1;" edge="1" parent="1" source="7sjaSlBi-hbUuqMdy172-2" target="7sjaSlBi-hbUuqMdy172-5">
          <mxGeometry relative="1" as="geometry" />
        </mxCell>
        <mxCell id="7sjaSlBi-hbUuqMdy172-2" value="nome" style="shape=manualInput;whiteSpace=wrap;html=1;dashed=0;size=15;" vertex="1" parent="1">
          <mxGeometry x="180" y="230" width="100" height="50" as="geometry" />
        </mxCell>
        <mxCell id="7sjaSlBi-hbUuqMdy172-24" value="" style="edgeStyle=orthogonalEdgeStyle;rounded=0;orthogonalLoop=1;jettySize=auto;html=1;" edge="1" parent="1" source="7sjaSlBi-hbUuqMdy172-3" target="7sjaSlBi-hbUuqMdy172-2">
          <mxGeometry relative="1" as="geometry" />
        </mxCell>
        <mxCell id="7sjaSlBi-hbUuqMdy172-3" value="Digite seu nome:" style="strokeWidth=2;html=1;shape=mxgraph.flowchart.display;whiteSpace=wrap;" vertex="1" parent="1">
          <mxGeometry x="180" y="120" width="100" height="60" as="geometry" />
        </mxCell>
        <mxCell id="7sjaSlBi-hbUuqMdy172-27" value="" style="edgeStyle=orthogonalEdgeStyle;rounded=0;orthogonalLoop=1;jettySize=auto;html=1;" edge="1" parent="1" source="7sjaSlBi-hbUuqMdy172-4" target="7sjaSlBi-hbUuqMdy172-7">
          <mxGeometry relative="1" as="geometry" />
        </mxCell>
        <mxCell id="7sjaSlBi-hbUuqMdy172-4" value="tefefone" style="shape=manualInput;whiteSpace=wrap;html=1;dashed=0;size=15;" vertex="1" parent="1">
          <mxGeometry x="180" y="440" width="100" height="50" as="geometry" />
        </mxCell>
        <mxCell id="7sjaSlBi-hbUuqMdy172-26" value="" style="edgeStyle=orthogonalEdgeStyle;rounded=0;orthogonalLoop=1;jettySize=auto;html=1;" edge="1" parent="1" source="7sjaSlBi-hbUuqMdy172-5" target="7sjaSlBi-hbUuqMdy172-4">
          <mxGeometry relative="1" as="geometry" />
        </mxCell>
        <mxCell id="7sjaSlBi-hbUuqMdy172-5" value="Digite seu Telefone:" style="strokeWidth=2;html=1;shape=mxgraph.flowchart.display;whiteSpace=wrap;" vertex="1" parent="1">
          <mxGeometry x="180" y="330" width="100" height="60" as="geometry" />
        </mxCell>
        <mxCell id="7sjaSlBi-hbUuqMdy172-29" value="" style="edgeStyle=orthogonalEdgeStyle;rounded=0;orthogonalLoop=1;jettySize=auto;html=1;" edge="1" parent="1" source="7sjaSlBi-hbUuqMdy172-6" target="7sjaSlBi-hbUuqMdy172-9">
          <mxGeometry relative="1" as="geometry" />
        </mxCell>
        <mxCell id="7sjaSlBi-hbUuqMdy172-6" value="serie" style="shape=manualInput;whiteSpace=wrap;html=1;dashed=0;size=15;" vertex="1" parent="1">
          <mxGeometry x="180" y="650" width="100" height="50" as="geometry" />
        </mxCell>
        <mxCell id="7sjaSlBi-hbUuqMdy172-28" value="" style="edgeStyle=orthogonalEdgeStyle;rounded=0;orthogonalLoop=1;jettySize=auto;html=1;" edge="1" parent="1" source="7sjaSlBi-hbUuqMdy172-7" target="7sjaSlBi-hbUuqMdy172-6">
          <mxGeometry relative="1" as="geometry" />
        </mxCell>
        <mxCell id="7sjaSlBi-hbUuqMdy172-7" value="Digite sua série:" style="strokeWidth=2;html=1;shape=mxgraph.flowchart.display;whiteSpace=wrap;" vertex="1" parent="1">
          <mxGeometry x="180" y="540" width="100" height="60" as="geometry" />
        </mxCell>
        <mxCell id="7sjaSlBi-hbUuqMdy172-31" value="" style="edgeStyle=orthogonalEdgeStyle;rounded=0;orthogonalLoop=1;jettySize=auto;html=1;" edge="1" parent="1" source="7sjaSlBi-hbUuqMdy172-8" target="7sjaSlBi-hbUuqMdy172-21">
          <mxGeometry relative="1" as="geometry" />
        </mxCell>
        <mxCell id="7sjaSlBi-hbUuqMdy172-8" value="media" style="shape=manualInput;whiteSpace=wrap;html=1;dashed=0;size=15;" vertex="1" parent="1">
          <mxGeometry x="180" y="860" width="100" height="50" as="geometry" />
        </mxCell>
        <mxCell id="7sjaSlBi-hbUuqMdy172-30" value="" style="edgeStyle=orthogonalEdgeStyle;rounded=0;orthogonalLoop=1;jettySize=auto;html=1;" edge="1" parent="1" source="7sjaSlBi-hbUuqMdy172-9" target="7sjaSlBi-hbUuqMdy172-8">
          <mxGeometry relative="1" as="geometry" />
        </mxCell>
        <mxCell id="7sjaSlBi-hbUuqMdy172-9" value="Digite sua média" style="strokeWidth=2;html=1;shape=mxgraph.flowchart.display;whiteSpace=wrap;" vertex="1" parent="1">
          <mxGeometry x="180" y="750" width="100" height="60" as="geometry" />
        </mxCell>
        <mxCell id="7sjaSlBi-hbUuqMdy172-34" value="" style="edgeStyle=orthogonalEdgeStyle;rounded=0;orthogonalLoop=1;jettySize=auto;html=1;" edge="1" parent="1" source="7sjaSlBi-hbUuqMdy172-10" target="7sjaSlBi-hbUuqMdy172-11">
          <mxGeometry relative="1" as="geometry" />
        </mxCell>
        <mxCell id="7sjaSlBi-hbUuqMdy172-10" value="Nome:&amp;nbsp;" style="strokeWidth=2;html=1;shape=mxgraph.flowchart.display;whiteSpace=wrap;" vertex="1" parent="1">
          <mxGeometry x="460" y="260" width="100" height="60" as="geometry" />
        </mxCell>
        <mxCell id="7sjaSlBi-hbUuqMdy172-35" value="" style="edgeStyle=orthogonalEdgeStyle;rounded=0;orthogonalLoop=1;jettySize=auto;html=1;" edge="1" parent="1" source="7sjaSlBi-hbUuqMdy172-11" target="7sjaSlBi-hbUuqMdy172-12">
          <mxGeometry relative="1" as="geometry" />
        </mxCell>
        <mxCell id="7sjaSlBi-hbUuqMdy172-11" value="Telefone:" style="strokeWidth=2;html=1;shape=mxgraph.flowchart.display;whiteSpace=wrap;" vertex="1" parent="1">
          <mxGeometry x="460" y="360" width="100" height="60" as="geometry" />
        </mxCell>
        <mxCell id="7sjaSlBi-hbUuqMdy172-36" value="" style="edgeStyle=orthogonalEdgeStyle;rounded=0;orthogonalLoop=1;jettySize=auto;html=1;" edge="1" parent="1" source="7sjaSlBi-hbUuqMdy172-12" target="7sjaSlBi-hbUuqMdy172-13">
          <mxGeometry relative="1" as="geometry" />
        </mxCell>
        <mxCell id="7sjaSlBi-hbUuqMdy172-12" value="Série:" style="strokeWidth=2;html=1;shape=mxgraph.flowchart.display;whiteSpace=wrap;" vertex="1" parent="1">
          <mxGeometry x="460" y="460" width="100" height="60" as="geometry" />
        </mxCell>
        <mxCell id="7sjaSlBi-hbUuqMdy172-37" value="" style="edgeStyle=orthogonalEdgeStyle;rounded=0;orthogonalLoop=1;jettySize=auto;html=1;" edge="1" parent="1" source="7sjaSlBi-hbUuqMdy172-13" target="7sjaSlBi-hbUuqMdy172-16">
          <mxGeometry relative="1" as="geometry" />
        </mxCell>
        <mxCell id="7sjaSlBi-hbUuqMdy172-13" value="----------------" style="strokeWidth=2;html=1;shape=mxgraph.flowchart.display;whiteSpace=wrap;" vertex="1" parent="1">
          <mxGeometry x="460" y="570" width="100" height="60" as="geometry" />
        </mxCell>
        <mxCell id="7sjaSlBi-hbUuqMdy172-33" value="" style="edgeStyle=orthogonalEdgeStyle;rounded=0;orthogonalLoop=1;jettySize=auto;html=1;" edge="1" parent="1" source="7sjaSlBi-hbUuqMdy172-15" target="7sjaSlBi-hbUuqMdy172-10">
          <mxGeometry relative="1" as="geometry" />
        </mxCell>
        <mxCell id="7sjaSlBi-hbUuqMdy172-15" value="--------Tecnico em infomática EAaD--------------" style="strokeWidth=2;html=1;shape=mxgraph.flowchart.display;whiteSpace=wrap;" vertex="1" parent="1">
          <mxGeometry x="430" y="130" width="160" height="80" as="geometry" />
        </mxCell>
        <mxCell id="7sjaSlBi-hbUuqMdy172-38" value="" style="edgeStyle=orthogonalEdgeStyle;rounded=0;orthogonalLoop=1;jettySize=auto;html=1;" edge="1" parent="1" source="7sjaSlBi-hbUuqMdy172-16" target="7sjaSlBi-hbUuqMdy172-17">
          <mxGeometry relative="1" as="geometry" />
        </mxCell>
        <mxCell id="7sjaSlBi-hbUuqMdy172-16" value="Média:" style="strokeWidth=2;html=1;shape=mxgraph.flowchart.display;whiteSpace=wrap;" vertex="1" parent="1">
          <mxGeometry x="460" y="660" width="100" height="60" as="geometry" />
        </mxCell>
        <mxCell id="7sjaSlBi-hbUuqMdy172-39" value="" style="edgeStyle=orthogonalEdgeStyle;rounded=0;orthogonalLoop=1;jettySize=auto;html=1;" edge="1" parent="1" source="7sjaSlBi-hbUuqMdy172-17" target="7sjaSlBi-hbUuqMdy172-20">
          <mxGeometry relative="1" as="geometry" />
        </mxCell>
        <mxCell id="7sjaSlBi-hbUuqMdy172-17" value="------------------" style="strokeWidth=2;html=1;shape=mxgraph.flowchart.display;whiteSpace=wrap;" vertex="1" parent="1">
          <mxGeometry x="460" y="760" width="100" height="60" as="geometry" />
        </mxCell>
        <mxCell id="7sjaSlBi-hbUuqMdy172-20" value="Fim" style="html=1;dashed=0;whiteSpace=wrap;shape=mxgraph.dfd.start" vertex="1" parent="1">
          <mxGeometry x="470" y="890" width="80" height="30" as="geometry" />
        </mxCell>
        <mxCell id="7sjaSlBi-hbUuqMdy172-21" value="A" style="shape=ellipse;html=1;dashed=0;whiteSpace=wrap;aspect=fixed;perimeter=ellipsePerimeter;" vertex="1" parent="1">
          <mxGeometry x="215" y="970" width="50" height="50" as="geometry" />
        </mxCell>
        <mxCell id="7sjaSlBi-hbUuqMdy172-32" value="" style="edgeStyle=orthogonalEdgeStyle;rounded=0;orthogonalLoop=1;jettySize=auto;html=1;" edge="1" parent="1" source="7sjaSlBi-hbUuqMdy172-22" target="7sjaSlBi-hbUuqMdy172-15">
          <mxGeometry relative="1" as="geometry" />
        </mxCell>
        <mxCell id="7sjaSlBi-hbUuqMdy172-22" value="A" style="shape=ellipse;html=1;dashed=0;whiteSpace=wrap;aspect=fixed;perimeter=ellipsePerimeter;" vertex="1" parent="1">
          <mxGeometry x="490" y="40" width="50" height="50" as="geometry" />
        </mxCell>
      </root>
    </mxGraphModel>
  </diagram>
</mxfile>
